PathFileType	4	(X/Y/Z)	51_2_100_p1_0-434.trc
DataRate	CameraRate	NumFrames	NumMarkers	Units	OrigDataRate	OrigDataStartFrame	OrigNumFrames
51.0	51.0	6	27	m	51.0	163	435
Frame#	Time	RHip			RKnee			RAnkle			RBigToe			RSmallToe			RHeel			LHip			LKnee			LAnkle			LBigToe			LSmallToe			LHeel			Neck			Head			Nose			RShoulder			RElbow			RWrist			RThumb			RIndex			RPinky			LShoulder			LElbow			LWrist			LThumb			LIndex			LPinky			
		X1	Y1	Z1	X2	Y2	Z2	X3	Y3	Z3	X4	Y4	Z4	X5	Y5	Z5	X6	Y6	Z6	X7	Y7	Z7	X8	Y8	Z8	X9	Y9	Z9	X10	Y10	Z10	X11	Y11	Z11	X12	Y12	Z12	X13	Y13	Z13	X14	Y14	Z14	X15	Y15	Z15	X16	Y16	Z16	X17	Y17	Z17	X18	Y18	Z18	X19	Y19	Z19	X20	Y20	Z20	X21	Y21	Z21	X22	Y22	Z22	X23	Y23	Z23	X24	Y24	Z24	X25	Y25	Z25	X26	Y26	Z26	X27	Y27	Z27	
163	3.196078431372549	0.04408110962553936	0.4774375520033734	0.6208448587116557	0.042715982440382466	0.5131263451731788	1.0341959021883902	0.05612289845337471	0.6413316201624508	1.4584512887248535	0.04285723843635562	0.478168309832442	1.490841418143243	0.1104592845022978	0.4857984704026567	1.4900617052012861	0.03649242391000518	0.766115007778641	1.5381547201741248	-0.11218744485635139	0.5516047623814126	0.6123228132710042	-0.12919865309985382	0.600573910429332	1.047387735106222	-0.11027963338022716	0.648374731508391	1.4520989525252275	-0.10331641789645443	0.45350243627628967	1.4641661785518234	-0.15398275296074904	0.5146525222176067	1.4868702248736247	-0.10085380339387427	0.6997456118728217	1.5207621577003012	0.017646460240698183	0.44707339944040236	0.11478819077707555	-0.02100993865231119	0.35649253959685806	-0.11895439705051065	-0.06334261060928609	0.3869255510481824	0.014624118498184088	0.11849766956170886	0.4035731830403578	0.18842165188086504	-0.03773746814169032	0.2386601951602955	0.3724211347552574	-0.24136356685015634	0.17708133425934858	0.3015706635437197	-0.31709545008923723	0.09980813462580425	0.22981487713683763	-0.35295338596441217	0.1538091552387942	0.2522445332355718	-0.34983700728883	0.15804374452618372	0.2739271700370394	-0.10122986647248289	0.5721172097455445	0.15639920446595487	-0.1766850890099006	0.4344028580209847	0.31939033404409173	-0.3147683814480996	0.2622254656086867	0.2924412859479236	-0.35436834558665187	0.1602993484547423	0.23438511800438733	-0.3884511599878742	0.13673944704156493	0.2440766548293866	-0.39235888025772186	0.20173179795588975	0.28986288008858874
164	3.215686274509804	0.0441054567591639	0.47742981256813244	0.6208703022291227	0.04650762024270658	0.52553046187998	1.0337725508438036	0.05626528710882604	0.6417159384450892	1.45880804590867	0.042846343551457916	0.47813484423392083	1.4910951476572172	0.10593380387333377	0.4835311215333681	1.4893974157102405	0.036803369980831946	0.7667120012446229	1.5386954782655744	-0.11155314560362747	0.5518622815797646	0.6085926182614714	-0.12925517039585235	0.6006317364408752	1.0473115047651151	-0.11018219588986829	0.6480872560139184	1.4519291515126456	-0.10335959164067784	0.4537555205523163	1.4642028953865867	-0.15398876929448413	0.514446253381518	1.4866327728070456	-0.10093579881567132	0.6991690961940027	1.520685233376088	0.017371148556929533	0.44585983289583514	0.10401264021336867	-0.020980432376902006	0.3565338463384038	-0.11890427435181336	-0.06324927321722813	0.3856720686041191	0.007306238648058583	0.11863561987113727	0.40355919444560145	0.18500909784678762	-0.028611407555633534	0.22870306881538505	0.3716280405968519	-0.21601972172222364	0.15714776140643683	0.2990489520414498	-0.3010818254009643	0.0867229524134472	0.21924809735219375	-0.33479630082174644	0.14499009836465282	0.2358364204920826	-0.3281670306687642	0.14909197105984834	0.26145623851636735	-0.104758996225507	0.5679839242240252	0.15997663101743254	-0.1909013765700957	0.4161043501755639	0.32583414477065775	-0.3146037129814852	0.2617423326394369	0.28130562086359995	-0.3432016661727053	0.16092334319055782	0.2151072972530557	-0.3640255987110705	0.1575847280463309	0.21957204435537025	-0.3632830932470593	0.17693547265272114	0.2613941271810249
165	3.235294117647059	0.04408503113999617	0.4773394324254424	0.620900676254685	0.04346359266550498	0.5131819569377526	1.0295364307915824	0.05286489524423297	0.6253704320259493	1.4510557976713336	0.0399894951335554	0.46587114916299943	1.4845164826132378	0.11068402664137036	0.486019392088928	1.4898363513696908	0.03086419721573907	0.7469281599138133	1.530232571409394	-0.11201503167958372	0.5513569459474085	0.6124119428979483	-0.11938696424529573	0.5878625234360526	1.042560967295798	-0.11031288500369239	0.6480997993829132	1.4519778488764508	-0.10525359712694972	0.43984920635501173	1.457702593699608	-0.15391145690818517	0.514581609499436	1.486950577813156	-0.10092227067641223	0.6990753754494511	1.520548528307718	0.017362879038820386	0.4457533802686401	0.10376843203760672	-0.024783772334601443	0.3546704892937538	-0.11900889959051478	-0.0633553043121072	0.3854665463923816	0.007252015494740553	0.11830194359749353	0.40363088700493166	0.18168001839602863	-0.014537268821478114	0.24239536486205343	0.387115002823738	-0.19759908160462752	0.1371094221455369	0.30549296969265194	-0.2896033938179384	0.11358434981391581	0.22115918708910356	-0.29718220955444113	0.07754610856803887	0.23611873151543192	-0.28665468770420555	0.08135726762930275	0.2552383901517432	-0.09700841631032997	0.5659529661995962	0.15987830263806024	-0.1816553357513377	0.45258511294277937	0.33385423023242966	-0.30300621432023606	0.28243153607201865	0.283648584681434	-0.3394644392700385	0.2180697108418426	0.2125012145070685	-0.3548212268423258	0.17538874214723899	0.22777784345807922	-0.3480898453356555	0.17146406765509611	0.2785973042967041
166	3.2549019607843137	0.0442526561565255	0.4774664912133083	0.6212293800292358	0.045098617835041196	0.5234585149330154	1.033838265302323	0.052804423068977896	0.6259061065936813	1.4513140613301498	0.042781215537897675	0.4783354739480164	1.4905734466058955	0.1060237221015681	0.502388479582771	1.4981490840661653	0.03167851620728019	0.7498876867031626	1.5356427881423558	-0.11437088011226651	0.5690701006558643	0.6199986082555149	-0.12924151100017828	0.60061545868851	1.0472858762005923	-0.11046027740666745	0.6478950652149207	1.4516604791107757	-0.1052709543658321	0.4399563681206248	1.457766455921605	-0.15403376539805605	0.5146647561562936	1.4870233552277894	-0.10151117821115568	0.6973165572207283	1.5162619461026072	0.006186636172616484	0.4457054711946841	0.10337073578813678	-0.023826014132931922	0.34477376095817786	-0.1218206979053031	-0.06548838887114322	0.3735316529478677	0.0005430739839085236	0.11843168609801273	0.40452641240914733	0.1890901624164938	0.02427371691701439	0.2762614733807828	0.4122537339088774	-0.17899707709721038	0.18773971110531212	0.31837737611341477	-0.25413186343414307	0.15834359339635545	0.2279949902373239	-0.2556592127502383	0.1535649808628542	0.24223809770318402	-0.25835862569594537	0.13326612544904287	0.2656908091840481	-0.1048463714812753	0.568015869854317	0.1603549900391088	-0.17660388918193343	0.49887236397691	0.3543064549505467	-0.2832920809347365	0.33289487039024773	0.2958190793207051	-0.3015012903917807	0.2479065901658404	0.22923729563982762	-0.3220890149808519	0.23490925954081682	0.24377464703950943	-0.31097390996616975	0.2351589800505842	0.2843529587997813
167	3.2745098039215685	0.041399999662155344	0.4658025970246712	0.6192464719447904	0.045088177848160695	0.5235680996127606	1.0339449668308007	0.052898237686046255	0.6255872973270629	1.4512285571275567	0.039941211940511014	0.4658905731684059	1.4844487617376299	0.11070587463623816	0.48575420191602553	1.4896122388676885	0.038356051528432876	0.731498834511309	1.5218054337573588	-0.11354912868475169	0.5691883938511966	0.6201475590241253	-0.1251765238122429	0.6027836034118402	1.0478189272715313	-0.11024100219601247	0.6481129423834184	1.4518910618208325	-0.10529244782743083	0.44002144065189763	1.4576744254729734	-0.1539801397528849	0.5145453681437845	1.4868634246486248	-0.10065062264847081	0.6997650820432464	1.5205087625400004	0.010576350568790678	0.43205707024205925	0.10254309169370811	-0.02373322882500197	0.3451913686441198	-0.12528984910437868	-0.06973453198762072	0.37227906950545675	0.0033811933481020704	0.11839100215706397	0.4044321979823559	0.1890648207231889	0.03339468681334243	0.26607923679901146	0.4142460999237879	-0.1674738721084753	0.1918167981045509	0.3264890897913012	-0.22518516147381057	0.13908442027131518	0.23473573986108387	-0.23797075303687704	0.15509137546924726	0.2419989821444355	-0.22847749566687078	0.12766913695180682	0.2646303612214489	-0.10491042919731049	0.567428219414398	0.16033421136062817	-0.18397122653377176	0.5248794041378128	0.3465541011939373	-0.2765014640347407	0.34999596379088393	0.3044521352215137	-0.2841217085176399	0.2556787267472352	0.2543152115986686	-0.30393424014041653	0.2673400795664107	0.25295698898447866	-0.3013341409619106	0.2441364750961708	0.2800365747516201
168	3.2941176470588234	0.04533600792645582	0.4676236621337109	0.6193883025706486	0.042336617184059046	0.5107865721397251	1.0337033315429476	0.05338892282465919	0.6245562357830208	1.4555711288999484	0.03893862948193407	0.4637427499355789	1.480082741347336	0.10269445531133048	0.48920597593278026	1.492183717898607	0.03910837769149455	0.7301550603480025	1.5258500018026444	-0.11329319978151091	0.5710690484971221	0.6284923093740895	-0.1291736627313292	0.6008510766655097	1.047563119498219	-0.11009059295946012	0.648270187281456	1.4521936739907757	-0.10547674888262773	0.440145852243854	1.457658983314372	-0.15405500275619288	0.5146531330043697	1.4869732914560425	-0.10055545869088485	0.6992560829002907	1.5204794036036897	0.0060077021784169776	0.44532307899520746	0.10296179243367272	-0.01734599010996176	0.35723285910783376	-0.12968443594486365	-0.0697463323850635	0.37137708345431525	-0.0033276812843517417	0.11112233337271382	0.3902125238946684	0.1920030545870728	0.050834679866254916	0.28990876777283103	0.4203202394404292	-0.1557176901361338	0.19417984417850942	0.3408266912307546	-0.1864582684156181	0.16725105503495644	0.2538037832651949	-0.21443103892922763	0.13728785664449575	0.252157557295514	-0.21970655042254725	0.11809575166126117	0.2700811388176621	-0.1076389054014616	0.5549429117259514	0.15986334147525852	-0.1986622029966285	0.585174864048811	0.3628569662872346	-0.26711358040876454	0.3610150260082265	0.3132397469892336	-0.26166403958267953	0.2634625210916804	0.26185796750291623	-0.29250835261610136	0.25692458316157074	0.2547485658927325	-0.29254869264484473	0.24816147980708425	0.28612033539823367
